<?xml version="1.0" standalone="no"?>
<!DOCTYPE svg PUBLIC "-//W3C//DTD SVG 20010904//EN"
 "http://www.w3.org/TR/2001/REC-SVG-20010904/DTD/svg10.dtd">
<svg version="1.0" xmlns="http://www.w3.org/2000/svg"
 width="100.000000pt" height="100.000000pt" viewBox="0 0 100.000000 100.000000"
 preserveAspectRatio="xMidYMid meet">
<metadata>
Created by potrace 1.11, written by Peter Selinger 2001-2013
</metadata>
<g transform="translate(0.000000,100.000000) scale(0.100000,-0.100000)"
fill="#000000" stroke="none">
<path d="M177 943 c-55 -91 -129 -242 -153 -313 -29 -85 -35 -330 -9 -380 23
-44 73 -89 126 -114 29 -14 44 -27 41 -36 -3 -12 -2 -13 6 -1 7 10 21 11 53 5
67 -12 129 -11 179 4 36 10 47 10 55 0 21 -27 111 -49 187 -47 70 2 166 27
194 50 7 6 18 8 24 4 6 -4 9 -2 8 3 -2 5 11 23 29 40 38 37 56 71 71 133 16
62 7 175 -19 257 -6 18 -12 39 -13 45 -2 7 -8 25 -14 40 -7 16 -12 30 -12 33
0 13 -121 245 -149 287 l-32 47 -269 0 -269 0 -34 -57z"/>
</g>
</svg>
